<svg width="135" height="44" viewBox="0 0 135 44" fill="none" xmlns="http://www.w3.org/2000/svg">
<g clip-path="url(#clip0_2_257)">
<path d="M9.9859 21.9858C4.47432 21.9858 0.000359941 26.4695 0.000359457 31.993L0.000358582 42.0002H9.9859C15.4975 42.0002 19.9714 37.5165 19.9714 31.993C19.9714 26.4695 15.4975 21.9858 9.9859 21.9858Z" fill="#57D9A6"/>
<path d="M29.9851 22.0144C35.4966 22.0144 39.9706 17.5307 39.9706 12.0072V2H29.9851C24.4735 2 19.9995 6.48367 19.9995 12.0072C19.9995 17.5307 24.4735 22.0144 29.9851 22.0144Z" fill="#57D9A6"/>
<path d="M20.0287 12.0072C20.0287 6.49958 15.5418 2.02881 10.0143 2.02881H0L4.36482e-07 12.0072C6.77401e-07 17.5149 4.48686 21.9857 10.0143 21.9857C15.5418 21.9857 20.0287 17.5149 20.0287 12.0072Z" fill="#57D9A6"/>
<path d="M19.9713 31.9642C19.9713 37.4718 24.4582 41.9426 29.9857 41.9426H40V31.9642C40 26.4565 35.5131 21.9858 29.9857 21.9858C24.4582 21.9858 19.9713 26.4565 19.9713 31.9642Z" fill="#57D9A6"/>
<path d="M65.384 34.4081C63.9333 34.4081 62.4827 34.1474 61.032 33.6261C59.604 33.0821 58.3233 32.2774 57.19 31.2121L60.046 27.7781C60.8393 28.4581 61.712 29.0134 62.664 29.4441C63.6387 29.8748 64.5907 30.0901 65.52 30.0901C66.5627 30.0901 67.3333 29.8974 67.832 29.5121C68.3533 29.1268 68.614 28.6054 68.614 27.9481C68.614 27.6081 68.5347 27.3134 68.376 27.0641C68.24 26.8148 68.0247 26.5994 67.73 26.4181C67.458 26.2141 67.118 26.0329 66.71 25.8741C66.3247 25.6929 65.894 25.5001 65.418 25.2961L62.528 24.0721C61.9613 23.8454 61.406 23.5508 60.862 23.1881C60.3407 22.8254 59.8647 22.4061 59.434 21.9301C59.026 21.4314 58.6973 20.8648 58.448 20.2301C58.1987 19.5728 58.074 18.8361 58.074 18.0201C58.074 17.1134 58.2667 16.2634 58.652 15.4701C59.0373 14.6541 59.5813 13.9514 60.284 13.3621C60.9867 12.7501 61.814 12.2741 62.766 11.9341C63.7407 11.5941 64.806 11.4241 65.962 11.4241C67.254 11.4241 68.5233 11.6734 69.77 12.1721C71.0393 12.6708 72.15 13.3961 73.102 14.3481L70.552 17.5101C69.8267 16.9434 69.1013 16.5128 68.376 16.2181C67.6507 15.9008 66.846 15.7421 65.962 15.7421C65.1007 15.7421 64.4093 15.9234 63.888 16.2861C63.3893 16.6261 63.14 17.1134 63.14 17.7481C63.14 18.0881 63.2193 18.3828 63.378 18.6321C63.5593 18.8588 63.7973 19.0741 64.092 19.2781C64.4093 19.4594 64.772 19.6408 65.18 19.8221C65.588 19.9808 66.03 20.1621 66.506 20.3661L69.362 21.5221C70.722 22.0661 71.7873 22.8141 72.558 23.7661C73.3513 24.7181 73.748 25.9762 73.748 27.5401C73.748 28.4694 73.5553 29.3534 73.17 30.1921C72.8073 31.0081 72.2633 31.7334 71.538 32.3681C70.8353 32.9801 69.9627 33.4788 68.92 33.8641C67.8773 34.2268 66.6987 34.4081 65.384 34.4081ZM76.4226 34.0001V10.1661H81.2846V23.8341H81.4206L86.7586 17.1361H92.1986L86.2826 24.0721L92.6406 34.0001H87.2346L83.4266 27.4381L81.2846 29.8521V34.0001H76.4226ZM94.3695 34.0001V17.1361H99.3675V34.0001H94.3695ZM96.8515 14.6541C96.0129 14.6541 95.3215 14.4161 94.7775 13.9401C94.2335 13.4414 93.9615 12.8068 93.9615 12.0361C93.9615 11.2654 94.2335 10.6421 94.7775 10.1661C95.3215 9.69015 96.0129 9.45215 96.8515 9.45215C97.7129 9.45215 98.4042 9.69015 98.9255 10.1661C99.4695 10.6421 99.7415 11.2654 99.7415 12.0361C99.7415 12.8068 99.4695 13.4414 98.9255 13.9401C98.4042 14.4161 97.7129 14.6541 96.8515 14.6541ZM107.676 34.4081C106.815 34.4081 106.089 34.2721 105.5 34.0001C104.911 33.7281 104.435 33.3541 104.072 32.8781C103.732 32.3794 103.483 31.7901 103.324 31.1101C103.165 30.4074 103.086 29.6254 103.086 28.7641V10.1661H108.084V28.9681C108.084 29.4894 108.175 29.8521 108.356 30.0561C108.56 30.2601 108.764 30.3621 108.968 30.3621C109.081 30.3621 109.172 30.3621 109.24 30.3621C109.331 30.3621 109.444 30.3394 109.58 30.2941L110.192 34.0001C109.92 34.1134 109.569 34.2041 109.138 34.2721C108.73 34.3628 108.243 34.4081 107.676 34.4081ZM116.725 34.4081C115.863 34.4081 115.138 34.2721 114.549 34.0001C113.959 33.7281 113.483 33.3541 113.121 32.8781C112.781 32.3794 112.531 31.7901 112.373 31.1101C112.214 30.4074 112.135 29.6254 112.135 28.7641V10.1661H117.133V28.9681C117.133 29.4894 117.223 29.8521 117.405 30.0561C117.609 30.2601 117.813 30.3621 118.017 30.3621C118.13 30.3621 118.221 30.3621 118.289 30.3621C118.379 30.3621 118.493 30.3394 118.629 30.2941L119.241 34.0001C118.969 34.1134 118.617 34.2041 118.187 34.2721C117.779 34.3628 117.291 34.4081 116.725 34.4081ZM120.265 34.0001V31.3141L127.337 21.0461H121.047V17.1361H133.559V19.7881L126.487 30.0901H133.797V34.0001H120.265Z" fill="white"/>
</g>
<defs>
<clipPath id="clip0_2_257">
<rect width="135" height="44" fill="white"/>
</clipPath>
</defs>
</svg>
